<svg width="100" height="100" viewBox="0 0 100 100" fill="none" xmlns="http://www.w3.org/2000/svg">
<path fill-rule="evenodd" clip-rule="evenodd" d="M75.1233 93.2393C90.0003 84.5767 100 68.4561 100 50C100 45.7086 99.4594 41.5435 98.4425 37.5691L71.469 31.6666C71.2399 32.1232 70.9559 32.4301 70.6212 32.4994C70.1882 32.5891 68.1478 32.6476 65.2716 32.6701L75.1233 93.2393ZM7.74855 76.748C2.84148 69.0129 0 59.8383 0 50C0 22.3858 22.3858 0 50 0C71.7133 0 90.1939 13.8406 97.1007 33.1808L72.1514 27.7213C72.122 26.1971 71.7927 24.8204 71.1212 24.4995C69.5077 23.7283 42.2731 20.8108 38.8395 20.9691C35.4059 21.1274 34.2357 30.7644 37.5316 31.7398C38.2335 31.9476 40.0576 32.1177 42.5111 32.2534L7.74855 76.748Z" fill="#D7912F"/>
</svg>
